<svg xmlns="http://www.w3.org/2000/svg" viewBox="0 0 130 130"><title>absqir</title>
  <!-- absqir mark: a lowercase a on an 11 x 13 QR module grid. The counter
       holds a cobalt block, the way a finder pattern holds its centre. -->
  <g transform="translate(10 0)">
    <rect x="21" y="1" width="8" height="8" rx="1.6" fill="#131a26"/>
    <rect x="31" y="1" width="8" height="8" rx="1.6" fill="#131a26"/>
    <rect x="41" y="1" width="8" height="8" rx="1.6" fill="#131a26"/>
    <rect x="51" y="1" width="8" height="8" rx="1.6" fill="#131a26"/>
    <rect x="61" y="1" width="8" height="8" rx="1.6" fill="#131a26"/>
    <rect x="71" y="1" width="8" height="8" rx="1.6" fill="#131a26"/>
    <rect x="81" y="1" width="8" height="8" rx="1.6" fill="#131a26"/>
    <rect x="11" y="11" width="8" height="8" rx="1.6" fill="#131a26"/>
    <rect x="21" y="11" width="8" height="8" rx="1.6" fill="#131a26"/>
    <rect x="31" y="11" width="8" height="8" rx="1.6" fill="#131a26"/>
    <rect x="41" y="11" width="8" height="8" rx="1.6" fill="#131a26"/>
    <rect x="51" y="11" width="8" height="8" rx="1.6" fill="#131a26"/>
    <rect x="61" y="11" width="8" height="8" rx="1.6" fill="#131a26"/>
    <rect x="71" y="11" width="8" height="8" rx="1.6" fill="#131a26"/>
    <rect x="81" y="11" width="8" height="8" rx="1.6" fill="#131a26"/>
    <rect x="91" y="11" width="8" height="8" rx="1.6" fill="#131a26"/>
    <rect x="101" y="11" width="8" height="8" rx="1.6" fill="#131a26"/>
    <rect x="91" y="21" width="8" height="8" rx="1.6" fill="#131a26"/>
    <rect x="101" y="21" width="8" height="8" rx="1.6" fill="#131a26"/>
    <rect x="91" y="31" width="8" height="8" rx="1.6" fill="#131a26"/>
    <rect x="101" y="31" width="8" height="8" rx="1.6" fill="#131a26"/>
    <rect x="21" y="41" width="8" height="8" rx="1.6" fill="#131a26"/>
    <rect x="31" y="41" width="8" height="8" rx="1.6" fill="#131a26"/>
    <rect x="41" y="41" width="8" height="8" rx="1.6" fill="#131a26"/>
    <rect x="51" y="41" width="8" height="8" rx="1.6" fill="#131a26"/>
    <rect x="61" y="41" width="8" height="8" rx="1.6" fill="#131a26"/>
    <rect x="71" y="41" width="8" height="8" rx="1.6" fill="#131a26"/>
    <rect x="81" y="41" width="8" height="8" rx="1.6" fill="#131a26"/>
    <rect x="91" y="41" width="8" height="8" rx="1.6" fill="#131a26"/>
    <rect x="101" y="41" width="8" height="8" rx="1.6" fill="#131a26"/>
    <rect x="11" y="51" width="8" height="8" rx="1.6" fill="#131a26"/>
    <rect x="21" y="51" width="8" height="8" rx="1.6" fill="#131a26"/>
    <rect x="31" y="51" width="8" height="8" rx="1.6" fill="#131a26"/>
    <rect x="41" y="51" width="8" height="8" rx="1.6" fill="#131a26"/>
    <rect x="51" y="51" width="8" height="8" rx="1.6" fill="#131a26"/>
    <rect x="61" y="51" width="8" height="8" rx="1.6" fill="#131a26"/>
    <rect x="71" y="51" width="8" height="8" rx="1.6" fill="#131a26"/>
    <rect x="81" y="51" width="8" height="8" rx="1.6" fill="#131a26"/>
    <rect x="91" y="51" width="8" height="8" rx="1.6" fill="#131a26"/>
    <rect x="101" y="51" width="8" height="8" rx="1.6" fill="#131a26"/>
    <rect x="1" y="61" width="8" height="8" rx="1.6" fill="#131a26"/>
    <rect x="11" y="61" width="8" height="8" rx="1.6" fill="#131a26"/>
    <rect x="21" y="61" width="8" height="8" rx="1.6" fill="#131a26"/>
    <rect x="81" y="61" width="8" height="8" rx="1.6" fill="#131a26"/>
    <rect x="91" y="61" width="8" height="8" rx="1.6" fill="#131a26"/>
    <rect x="101" y="61" width="8" height="8" rx="1.6" fill="#131a26"/>
    <rect x="1" y="71" width="8" height="8" rx="1.6" fill="#131a26"/>
    <rect x="11" y="71" width="8" height="8" rx="1.6" fill="#131a26"/>
    <rect x="41" y="71" width="8" height="8" rx="1.6" fill="#2563eb"/>
    <rect x="51" y="71" width="8" height="8" rx="1.6" fill="#2563eb"/>
    <rect x="61" y="71" width="8" height="8" rx="1.6" fill="#2563eb"/>
    <rect x="91" y="71" width="8" height="8" rx="1.6" fill="#131a26"/>
    <rect x="101" y="71" width="8" height="8" rx="1.6" fill="#131a26"/>
    <rect x="1" y="81" width="8" height="8" rx="1.6" fill="#131a26"/>
    <rect x="11" y="81" width="8" height="8" rx="1.6" fill="#131a26"/>
    <rect x="41" y="81" width="8" height="8" rx="1.6" fill="#2563eb"/>
    <rect x="51" y="81" width="8" height="8" rx="1.6" fill="#2563eb"/>
    <rect x="61" y="81" width="8" height="8" rx="1.6" fill="#2563eb"/>
    <rect x="91" y="81" width="8" height="8" rx="1.6" fill="#131a26"/>
    <rect x="101" y="81" width="8" height="8" rx="1.6" fill="#131a26"/>
    <rect x="1" y="91" width="8" height="8" rx="1.6" fill="#131a26"/>
    <rect x="11" y="91" width="8" height="8" rx="1.6" fill="#131a26"/>
    <rect x="41" y="91" width="8" height="8" rx="1.6" fill="#2563eb"/>
    <rect x="51" y="91" width="8" height="8" rx="1.6" fill="#2563eb"/>
    <rect x="61" y="91" width="8" height="8" rx="1.6" fill="#2563eb"/>
    <rect x="91" y="91" width="8" height="8" rx="1.6" fill="#131a26"/>
    <rect x="101" y="91" width="8" height="8" rx="1.6" fill="#131a26"/>
    <rect x="1" y="101" width="8" height="8" rx="1.6" fill="#131a26"/>
    <rect x="11" y="101" width="8" height="8" rx="1.6" fill="#131a26"/>
    <rect x="21" y="101" width="8" height="8" rx="1.6" fill="#131a26"/>
    <rect x="81" y="101" width="8" height="8" rx="1.6" fill="#131a26"/>
    <rect x="91" y="101" width="8" height="8" rx="1.6" fill="#131a26"/>
    <rect x="101" y="101" width="8" height="8" rx="1.6" fill="#131a26"/>
    <rect x="11" y="111" width="8" height="8" rx="1.6" fill="#131a26"/>
    <rect x="21" y="111" width="8" height="8" rx="1.6" fill="#131a26"/>
    <rect x="31" y="111" width="8" height="8" rx="1.6" fill="#131a26"/>
    <rect x="41" y="111" width="8" height="8" rx="1.6" fill="#131a26"/>
    <rect x="51" y="111" width="8" height="8" rx="1.6" fill="#131a26"/>
    <rect x="61" y="111" width="8" height="8" rx="1.6" fill="#131a26"/>
    <rect x="71" y="111" width="8" height="8" rx="1.6" fill="#131a26"/>
    <rect x="81" y="111" width="8" height="8" rx="1.6" fill="#131a26"/>
    <rect x="91" y="111" width="8" height="8" rx="1.6" fill="#131a26"/>
    <rect x="101" y="111" width="8" height="8" rx="1.6" fill="#131a26"/>
    <rect x="21" y="121" width="8" height="8" rx="1.6" fill="#131a26"/>
    <rect x="31" y="121" width="8" height="8" rx="1.6" fill="#131a26"/>
    <rect x="41" y="121" width="8" height="8" rx="1.6" fill="#131a26"/>
    <rect x="51" y="121" width="8" height="8" rx="1.6" fill="#131a26"/>
    <rect x="61" y="121" width="8" height="8" rx="1.6" fill="#131a26"/>
    <rect x="71" y="121" width="8" height="8" rx="1.6" fill="#131a26"/>
    <rect x="81" y="121" width="8" height="8" rx="1.6" fill="#131a26"/>
    <rect x="91" y="121" width="8" height="8" rx="1.6" fill="#131a26"/>
    <rect x="101" y="121" width="8" height="8" rx="1.6" fill="#131a26"/>
  </g>
</svg>
